<svg width="1032" height="277" viewBox="0 0 1032 277" fill="none" xmlns="http://www.w3.org/2000/svg">
<path fill-rule="evenodd" clip-rule="evenodd" d="M556.987 167.996H456V0.0703125H545.988L552 0C578.51 0 600 21.4903 600 48C600 57.143 597.444 65.689 593.007 72.9622C604.575 82.8663 612 97.577 612 114C612 143.823 587.823 168 558 168L556.987 167.996ZM492 36H546C570 36 570 66 546 66H492V36ZM492 96H558C582 96 582 132 558 132H492V96Z" fill="#3C3744"/>
<path d="M864 168H828.037V129H791.852V168H756V60H791.852V99H828.037V60H864V168Z" fill="#3C3744"/>
<path d="M1032 192H996V167.877H912V192H876V132H900L906 90V60H1008V132H1032V192ZM972 132V96H942L936 132H972Z" fill="#3C3744"/>
<path d="M432 168H393V118.909L348 168H312V60H351V109.994L399 60H432V168Z" fill="#3C3744"/>
<path d="M288 168H252.037V129H215.852V168H180V60H215.852V99H252.037V60H288V168Z" fill="#3C3744"/>
<path fill-rule="evenodd" clip-rule="evenodd" d="M708 124.475L743.547 121.365C743.846 118.952 744 116.494 744 114C744 106.077 742.464 98.5134 739.675 91.5894C730.796 69.5533 709.214 54 684 54C650.863 54 624 80.8629 624 114C624 147.137 650.863 174 684 174C714 174 732 162 744 138L706.418 131.074C702.984 138.621 694.258 144 684 144C672.654 144 663.147 137.436 660.644 128.618L708 124.475ZM705.191 94.6063L660.927 98.4789C663.804 90.1193 673.045 84 684 84C693.179 84 701.155 88.296 705.191 94.6063Z" fill="#3C3744"/>
<path d="M78.8229 93.9346L16.6727 168H68.3417L209.305 0H157.646L104.652 63.1537L51.6579 0H0L78.8229 93.9346Z" fill="#3C3744"/>
<path d="M792.158 263.857H787.961V245.397L778.669 258.786H775.472L766.204 245.397V263.857H762.008V239.977H766.729L777.07 255.064L787.437 239.977H792.158V263.857Z" fill="#3C3744"/>
<path d="M745.044 264.872C742.462 264.872 740.164 264.365 738.149 263.349C736.151 262.333 734.569 260.876 733.403 258.977C732.254 257.079 731.68 254.772 731.68 252.058C731.68 247.811 732.987 244.531 735.601 242.216C738.083 240.051 741.222 238.969 745.019 238.969C747.567 238.969 749.848 239.477 751.863 240.492C753.878 241.508 755.468 242.974 756.634 244.889C757.817 246.804 758.408 249.152 758.408 251.933C758.408 256.03 757.125 259.235 754.561 261.55C752.08 263.765 748.907 264.872 745.044 264.872ZM745.593 261.825C748.341 261.625 750.439 260.576 751.888 258.678C753.337 256.779 754.061 254.523 754.061 251.908C754.061 249.294 753.337 247.037 751.888 245.139C750.439 243.24 748.324 242.191 745.543 241.991H744.519C741.755 242.191 739.648 243.24 738.199 245.139C736.751 247.037 736.026 249.294 736.026 251.908C736.026 254.523 736.751 256.779 738.199 258.678C739.648 260.576 741.755 261.625 744.519 261.825H745.593Z" fill="#3C3744"/>
<path d="M720.14 263.857H715.943V242.924H705.852V239.977H730.232V242.924H720.14V263.857Z" fill="#3C3744"/>
<path d="M690.292 264.769H689.918C687.786 264.769 686.071 264.57 684.772 264.17C683.49 263.787 682.432 263.271 681.6 262.621C680.018 261.322 679.227 259.707 679.227 257.775C679.227 255.81 679.968 254.12 681.45 252.704C682.932 251.272 685.638 250.323 689.568 249.857L699.76 248.633C699.227 246.351 698.286 244.686 696.937 243.637C695.588 242.571 693.79 242.038 691.541 242.038H690.967C690.068 242.038 689.185 242.205 688.319 242.538C687.453 242.871 686.67 243.287 685.971 243.787C684.772 244.653 684.114 245.244 683.998 245.56L680.226 244.136C680.725 243.037 682.041 241.913 684.173 240.764C686.304 239.598 688.727 239.016 691.442 239.016H691.641C693.906 239.016 695.963 239.565 697.811 240.664C699.66 241.763 701.134 243.287 702.233 245.236C703.348 247.184 703.906 249.291 703.906 251.555V257.625C703.906 259.907 704.489 261.047 705.655 261.047C705.805 261.047 705.971 261.031 706.154 260.998H706.429V263.67C705.547 264.003 704.606 264.17 703.607 264.17C702.89 264.17 702.174 263.895 701.458 263.346C700.759 262.796 700.343 261.88 700.209 260.598C697.212 263.379 693.906 264.769 690.292 264.769ZM690.717 261.722C693.215 261.722 695.363 260.948 697.162 259.399C698.96 257.85 699.86 255.877 699.86 253.479V251.38L689.993 252.604C687.878 252.871 686.237 253.379 685.072 254.128C683.906 254.878 683.323 255.885 683.323 257.151C683.323 258.616 683.956 259.732 685.222 260.498C686.537 261.314 688.369 261.722 690.717 261.722Z" fill="#3C3744"/>
<path d="M675.556 263.857H671.36V245.397L662.068 258.786H658.87L649.603 245.397V263.857H645.406V239.977H650.127L660.469 255.064L670.835 239.977H675.556V263.857Z" fill="#3C3744"/>
<path d="M628.442 264.872C625.861 264.872 623.563 264.365 621.548 263.349C619.549 262.333 617.967 260.876 616.802 258.977C615.653 257.079 615.078 254.772 615.078 252.058C615.078 247.811 616.385 244.531 619 242.216C621.481 240.051 624.62 238.969 628.417 238.969C630.965 238.969 633.247 239.477 635.262 240.492C637.277 241.508 638.867 242.974 640.033 244.889C641.215 246.804 641.806 249.152 641.806 251.933C641.806 256.03 640.524 259.235 637.959 261.55C635.478 263.765 632.306 264.872 628.442 264.872ZM628.992 261.825C631.739 261.625 633.838 260.576 635.287 258.678C636.735 256.779 637.46 254.523 637.46 251.908C637.46 249.294 636.735 247.037 635.287 245.139C633.838 243.24 631.723 242.191 628.942 241.991H627.918C625.153 242.191 623.047 243.24 621.598 245.139C620.149 247.037 619.425 249.294 619.425 251.908C619.425 254.523 620.149 256.779 621.598 258.678C623.047 260.576 625.153 261.625 627.918 261.825H628.992Z" fill="#3C3744"/>
<path d="M603.538 263.857H599.342V242.924H589.25V239.977H613.63V242.924H603.538V263.857Z" fill="#3C3744"/>
<path d="M582.128 263.857H564.617V239.977H579.855C580.787 239.977 581.653 240.151 582.453 240.501C583.269 240.851 583.985 241.325 584.601 241.925C585.217 242.541 585.7 243.257 586.05 244.073C586.399 244.889 586.574 245.763 586.574 246.696C586.574 247.945 586.066 249.394 585.05 251.042C586.516 252.042 587.515 253.024 588.048 253.99C588.581 254.939 588.847 255.997 588.847 257.162C588.847 258.078 588.672 258.944 588.323 259.76C587.973 260.576 587.498 261.292 586.899 261.909C586.266 262.508 585.542 262.983 584.726 263.332C583.926 263.682 583.06 263.857 582.128 263.857ZM580.879 260.959C581.911 260.959 582.794 260.593 583.527 259.86C584.276 259.127 584.651 258.245 584.651 257.212C584.651 256.18 584.276 255.297 583.527 254.565C582.794 253.815 581.911 253.44 580.879 253.44H568.814V260.959H580.879ZM578.706 250.393C579.738 250.393 580.621 250.027 581.353 249.294C582.086 248.561 582.453 247.67 582.453 246.621C582.453 245.589 582.086 244.706 581.353 243.973C580.621 243.224 579.738 242.849 578.706 242.849H568.914V250.393H578.706Z" fill="#3C3744"/>
<path d="M545.121 264.769H544.746C542.614 264.769 540.899 264.57 539.6 264.17C538.318 263.787 537.26 263.271 536.428 262.621C534.846 261.322 534.055 259.707 534.055 257.775C534.055 255.81 534.796 254.12 536.278 252.704C537.76 251.272 540.466 250.323 544.396 249.857L554.588 248.633C554.055 246.351 553.114 244.686 551.765 243.637C550.416 242.571 548.618 242.038 546.37 242.038H545.795C544.896 242.038 544.013 242.205 543.147 242.538C542.281 242.871 541.499 243.287 540.799 243.787C539.6 244.653 538.942 245.244 538.826 245.56L535.054 244.136C535.553 243.037 536.869 241.913 539.001 240.764C541.132 239.598 543.555 239.016 546.27 239.016H546.469C548.734 239.016 550.791 239.565 552.639 240.664C554.488 241.763 555.962 243.287 557.061 245.236C558.176 247.184 558.734 249.291 558.734 251.555V257.625C558.734 259.907 559.317 261.047 560.483 261.047C560.633 261.047 560.799 261.031 560.983 260.998H561.257V263.67C560.375 264.003 559.434 264.17 558.435 264.17C557.719 264.17 557.002 263.895 556.286 263.346C555.587 262.796 555.171 261.88 555.037 260.598C552.04 263.379 548.734 264.769 545.121 264.769ZM545.545 261.722C548.043 261.722 550.191 260.948 551.99 259.399C553.788 257.85 554.688 255.877 554.688 253.479V251.38L544.821 252.604C542.706 252.871 541.066 253.379 539.9 254.128C538.734 254.878 538.151 255.885 538.151 257.151C538.151 258.616 538.784 259.732 540.05 260.498C541.365 261.314 543.197 261.722 545.545 261.722Z" fill="#3C3744"/>
<path d="M517.705 252.04H504.641V249.117H517.705V252.04ZM517.705 252.04H504.641V249.117H517.705V252.04Z" fill="#3C3744"/>
<path d="M487.559 263.855H483.363V256.087L481.414 256.911C479.799 257.461 478.05 257.735 476.169 257.735C474.32 257.735 472.722 257.511 471.373 257.061C470.04 256.611 468.908 256.07 467.975 255.437C467.06 254.788 466.318 254.138 465.752 253.489C465.203 252.839 464.803 252.298 464.553 251.865C463.388 249.95 462.805 247.644 462.805 244.946V240H467.001V244.796C467.001 247.411 467.751 249.667 469.249 251.565C470.765 253.447 472.896 254.496 475.644 254.713H476.169C479.266 254.63 481.664 253.431 483.363 251.116V240H487.559V263.855Z" fill="#3C3744"/>
<path d="M436.682 276.66H432.336V239.99H436.682V243.187C439.28 240.406 442.286 239.016 445.7 239.016C449.563 239.016 452.736 240.115 455.217 242.313C457.782 244.628 459.064 247.833 459.064 251.93C459.064 254.711 458.473 257.067 457.29 258.999C456.125 260.914 454.534 262.38 452.519 263.396C450.504 264.411 448.223 264.919 445.675 264.919C442.394 264.919 439.397 263.562 436.682 260.848V276.66ZM446.499 261.872C449.264 261.672 451.37 260.623 452.819 258.724C454.268 256.826 454.992 254.569 454.992 251.955C454.992 249.34 454.268 247.084 452.819 245.186C451.387 243.287 449.289 242.238 446.524 242.038H445.45C442.702 242.238 440.471 243.279 438.756 245.161C437.057 247.042 436.208 249.307 436.208 251.955C436.208 254.603 437.057 256.868 438.756 258.749C440.454 260.631 442.686 261.672 445.45 261.872H446.499Z" fill="#3C3744"/>
<path d="M415.564 264.897C414.265 264.897 412.966 264.764 411.667 264.498C410.385 264.248 409.236 263.865 408.22 263.349C406.221 262.35 404.639 260.892 403.474 258.977C402.325 257.062 401.75 254.764 401.75 252.083C401.75 251.267 401.858 250.276 402.075 249.11C402.291 247.928 402.541 246.987 402.824 246.288C403.524 244.656 404.481 243.307 405.697 242.241C406.929 241.159 408.353 240.343 409.968 239.793C411.584 239.244 413.29 238.969 415.089 238.969C417.637 238.969 419.918 239.485 421.933 240.517C423.948 241.533 425.539 242.999 426.704 244.914C427.887 246.812 428.478 249.16 428.478 251.958V252.033L406.246 254.231C406.413 256.379 407.32 258.153 408.969 259.552C410.634 260.951 412.516 261.717 414.614 261.85H416.563C418.095 261.75 419.51 261.334 420.809 260.601C422.125 259.868 422.991 259.194 423.407 258.578L427.329 260.101C426.213 261.8 424.306 263.116 421.609 264.048C420.776 264.331 419.802 264.539 418.686 264.673C417.57 264.822 416.529 264.897 415.564 264.897ZM406.046 251.234L424.007 249.46C423.674 246.829 422.708 244.955 421.109 243.84C419.51 242.707 417.687 242.075 415.639 241.941H414.589C412.208 242.108 410.185 243.007 408.519 244.639C406.871 246.254 406.046 248.453 406.046 251.234Z" fill="#3C3744"/>
<path d="M397.635 263.857H393.438V245.397L384.146 258.786H380.948L371.681 245.397V263.857H367.484V239.977H372.205L382.547 255.064L392.913 239.977H397.635V263.857Z" fill="#3C3744"/>
<path d="M338.213 236.258C336.681 236.258 335.258 235.883 333.942 235.134C332.626 234.368 331.569 233.377 330.77 232.161C329.97 230.929 329.571 229.721 329.571 228.539H333.242C333.242 229.688 333.725 230.746 334.691 231.711C335.657 232.677 336.831 233.16 338.213 233.16C339.579 233.16 340.745 232.677 341.711 231.711C342.693 230.746 343.184 229.688 343.184 228.539H346.856C346.856 229.721 346.457 230.929 345.657 232.161C344.858 233.377 343.8 234.368 342.485 235.134C341.169 235.883 339.745 236.258 338.213 236.258ZM350.403 263.86H346.207V244.901L330.195 263.86H326.023V239.98H330.22V258.939L346.232 239.98H350.403V263.86Z" fill="#3C3744"/>
<path d="M309.059 264.872C306.478 264.872 304.18 264.365 302.165 263.349C300.167 262.333 298.585 260.876 297.419 258.977C296.27 257.079 295.695 254.772 295.695 252.058C295.695 247.811 297.003 244.531 299.617 242.216C302.098 240.051 305.237 238.969 309.034 238.969C311.582 238.969 313.864 239.477 315.879 240.492C317.894 241.508 319.484 242.974 320.65 244.889C321.832 246.804 322.423 249.152 322.423 251.933C322.423 256.03 321.141 259.235 318.576 261.55C316.095 263.765 312.923 264.872 309.059 264.872ZM309.609 261.825C312.357 261.625 314.455 260.576 315.904 258.678C317.352 256.779 318.077 254.523 318.077 251.908C318.077 249.294 317.352 247.037 315.904 245.139C314.455 243.24 312.34 242.191 309.559 241.991H308.535C305.77 242.191 303.664 243.24 302.215 245.139C300.766 247.037 300.042 249.294 300.042 251.908C300.042 254.523 300.766 256.779 302.215 258.678C303.664 260.576 305.77 261.625 308.535 261.825H309.609Z" fill="#3C3744"/>
<path d="M286.417 263.857H268.906V239.977H284.144C285.076 239.977 285.942 240.151 286.742 240.501C287.558 240.851 288.274 241.325 288.89 241.925C289.506 242.541 289.989 243.257 290.339 244.073C290.688 244.889 290.863 245.763 290.863 246.696C290.863 247.945 290.355 249.394 289.339 251.042C290.805 252.042 291.804 253.024 292.337 253.99C292.87 254.939 293.136 255.997 293.136 257.162C293.136 258.078 292.961 258.944 292.612 259.76C292.262 260.576 291.787 261.292 291.188 261.909C290.555 262.508 289.831 262.983 289.015 263.332C288.215 263.682 287.349 263.857 286.417 263.857ZM285.168 260.959C286.2 260.959 287.083 260.593 287.816 259.86C288.565 259.127 288.94 258.245 288.94 257.212C288.94 256.18 288.565 255.297 287.816 254.565C287.083 253.815 286.2 253.44 285.168 253.44H273.103V260.959H285.168ZM282.995 250.393C284.027 250.393 284.91 250.027 285.642 249.294C286.375 248.561 286.742 247.67 286.742 246.621C286.742 245.589 286.375 244.706 285.642 243.973C284.91 243.224 284.027 242.849 282.995 242.849H273.203V250.393H282.995Z" fill="#3C3744"/>
<path d="M255.759 263.845H251.687V230.873H236V228H271.446V230.873H255.759V263.845Z" fill="#3C3744"/>
</svg>
