<svg xmlns="http://www.w3.org/2000/svg" viewBox="0 0 100 100" fill="none" role="img" aria-label="VK Music">
  <path fill="#0077ff" d="M7.03 7.03C.21 13.85 0 24.7 0 46c19.09 0 31.01-8.2 41.46-15.38C49.63 25 56.9 20 66 20c13.55 0 25.37 9.58 31.64 14.66.88.71 1.66 1.34 2.31 1.84-.2-15.19-1.26-23.75-6.98-29.47C85.94 0 74.63 0 52 0h-4C25.37 0 14.06 0 7.03 7.03Z"/>
  <path fill="#f45fff" d="M0 46c19.09 0 31.01-8.2 41.46-15.38C49.63 25 56.9 20 66 20c13.55 0 25.37 9.58 31.64 14.66.88.71 1.66 1.34 2.31 1.84C100 39.97 100 43.79 100 48v4c0 22.63 0 33.94-7.03 40.97C86.25 99.69 75.62 99.99 54.94 100h-9.88c-20.68-.01-31.31-.31-38.03-7.03C0 85.94 0 74.63 0 52v-4c0-.68 0-1.34 0-2Z"/>
  <path fill="#fff" d="M77.5 50.98a4.5 4.5 0 0 1 9 0v18.05a4.5 4.5 0 0 1-9 0V50.98Z"/>
  <path fill="#fff" d="M61.5 39.48a4.5 4.5 0 0 1 9 0v41.05a4.5 4.5 0 0 1-9 0V39.48Z"/>
  <path fill="#fff" d="M45.5 50.98a4.5 4.5 0 0 1 9 0v18.05a4.5 4.5 0 0 1-9 0V50.98Z"/>
  <path fill="#fff" d="M29.5 57.47a4.5 4.5 0 0 1 9 0v5.05a4.5 4.5 0 0 1-9 0v-5.05Z"/>
  <path fill="#fff" d="M13.5 57.47a4.5 4.5 0 0 1 9 0v5.05a4.5 4.5 0 0 1-9 0v-5.05Z"/>
</svg>
